<svg width="179" height="26" viewBox="0 0 179 26" fill="none" xmlns="http://www.w3.org/2000/svg">
<path d="M98.3818 25.5765V0.0722656H99.1591V25.5765H98.3818Z" fill="#48337E"/>
<path d="M73.072 25.2137H67.8254C67.8254 21.8051 67.8254 18.3723 67.8254 14.9637C67.8497 14.0451 67.6311 13.1264 67.1696 12.3287C66.7324 11.7001 66.1009 11.265 65.3479 11.0958C64.5949 10.9265 63.8177 10.9024 63.0404 10.9749C62.7732 10.9991 62.4817 11.0232 62.2145 11.0716C61.9716 11.1199 61.7287 11.1925 61.4859 11.265C61.243 11.3375 61.0001 11.4342 60.7572 11.5309V25.2137H55.4863V8.26733C55.8021 8.0981 56.1421 7.97723 56.4822 7.83218C57.138 7.59044 57.7938 7.37287 58.4739 7.20364C59.2755 7.01025 60.0771 6.84102 60.8786 6.72015C62.1174 6.55093 63.3562 6.47841 64.5949 6.50258C65.8337 6.52675 67.0482 6.74433 68.2141 7.15529C69.2342 7.51791 70.1815 8.07393 70.9831 8.82335C71.6632 9.47606 72.1976 10.298 72.5376 11.1683C72.8777 12.0627 73.0477 13.0056 73.0477 13.9725C73.0477 17.6954 73.0477 21.4425 73.0477 25.1654L73.072 25.2137Z" fill="#48337E"/>
<path d="M12.2022 3.96464C12.0079 3.36028 11.7893 2.75591 11.5707 2.15154C11.4007 1.523 10.7206 1.16038 10.1133 1.35378C9.99188 1.40213 9.84614 1.45048 9.74899 1.523C9.65183 1.59553 9.57896 1.66805 9.50609 1.76475C9.45751 1.86145 9.40893 1.95815 9.38464 2.03067L9.36035 2.0065C9.38464 1.9098 9.43322 1.8131 9.4818 1.7164C9.74898 1.16038 10.1862 0.676891 10.7449 0.386796C10.8906 0.314272 11.0363 0.241747 11.2064 0.193398C11.3764 0.145049 11.5464 0.0966978 11.7407 0.0483485C11.8865 0.0241739 12.0565 0 12.2022 0C12.688 0 13.1981 0.0966993 13.6353 0.314271C14.0725 0.531843 14.4369 0.846114 14.7284 1.23291C14.8984 1.47465 15.0441 1.74058 15.1413 2.03067C15.6271 3.4328 16.1129 4.81075 16.5986 6.21288C16.6229 6.30958 16.6715 6.40628 16.6958 6.52715C18.1532 6.55133 19.6106 6.5755 21.0679 6.62385C21.1651 6.62385 21.238 6.62385 21.3351 6.62385C21.3351 6.62385 21.3594 6.62385 21.3594 6.64802L21.3351 6.6722C21.2865 6.74472 21.2623 6.81725 21.2137 6.88977C21.1651 6.9623 21.0922 7.08317 21.0679 7.15569C21.0679 7.17987 21.0436 7.22822 21.0194 7.25239C20.9951 7.27657 20.9465 7.34909 20.9222 7.37326C20.8736 7.44579 20.8007 7.56666 20.7765 7.63919C20.7765 7.66336 20.7522 7.71171 20.7279 7.73589C20.7279 7.76006 20.655 7.83259 20.6307 7.85676C20.2907 8.53365 19.8535 9.25889 19.4405 9.9116C19.562 9.9116 19.6834 9.88743 19.8292 9.9116C19.8292 9.9116 19.8292 9.9116 19.8292 9.93577C18.6147 9.9116 17.4002 9.9116 16.1857 9.86325C15.6271 9.8149 15.117 9.62151 14.6798 9.28306C14.1697 8.89627 13.7811 8.3886 13.5867 7.78423C13.1495 6.52715 12.7123 5.27007 12.2751 4.03716C12.2265 3.98881 12.2022 3.98882 12.2022 3.96464Z" fill="#D62A23"/>
<path d="M154.151 7.59129C154.151 5.4881 154.151 3.38491 154.151 1.30589C154.151 1.03997 154.297 0.774043 154.54 0.65317C154.685 0.604821 154.831 0.556474 155.001 0.580649C155.73 0.580649 156.458 0.580649 157.163 0.580649C157.843 0.556474 158.523 0.822395 158.985 1.30589C159.495 1.9586 159.495 2.87724 158.985 3.52995C158.839 3.72335 158.644 3.8684 158.426 3.9651C158.887 4.08597 159.252 4.37607 159.495 4.78703C159.616 4.98043 159.665 5.198 159.689 5.41558C159.737 5.85072 159.64 6.28586 159.397 6.64848C159.057 7.1078 158.547 7.42207 157.989 7.51877C157.867 7.54294 157.721 7.56712 157.6 7.56712C156.458 7.61547 155.292 7.59129 154.151 7.59129ZM155.608 6.40673C156.215 6.45508 156.823 6.43091 157.43 6.38256C157.527 6.35839 157.6 6.33421 157.697 6.31004C157.916 6.21334 158.086 6.01994 158.159 5.80237C158.256 5.4881 158.183 5.12548 157.964 4.88373C157.819 4.73868 157.6 4.64199 157.381 4.61781C156.798 4.59364 156.216 4.61781 155.633 4.61781L155.608 6.40673ZM155.608 3.43325C156.094 3.43325 156.556 3.43325 157.017 3.43325C157.357 3.43325 157.673 3.23986 157.819 2.94976C157.94 2.73219 157.94 2.44209 157.819 2.22452C157.697 1.9586 157.454 1.78938 157.163 1.78938C156.653 1.76521 156.118 1.74103 155.608 1.7652V3.43325Z" fill="#48337E"/>
<path d="M103.871 7.56705H102.438C102.438 5.48803 102.438 3.43319 102.438 1.35417C102.438 0.967374 102.559 0.653103 102.972 0.556405C103.045 0.53223 103.118 0.532229 103.191 0.532229C103.968 0.532229 104.77 0.508054 105.547 0.532229C105.693 0.532229 105.839 0.556406 105.984 0.580581C106.421 0.653105 106.834 0.870677 107.126 1.18495C107.32 1.40252 107.49 1.64426 107.587 1.91019C107.636 2.05523 107.685 2.22445 107.709 2.3695C107.733 2.51455 107.757 2.6596 107.757 2.80465C107.806 3.45736 107.563 4.11008 107.102 4.59357C106.859 4.81114 106.567 4.98036 106.276 5.10124C106.106 5.14959 105.96 5.19794 105.79 5.22211C105.644 5.24628 105.474 5.27046 105.328 5.27046C105.061 5.29463 104.794 5.29463 104.527 5.27046C104.308 5.24628 104.114 5.22211 103.895 5.19793V7.5187L103.871 7.56705ZM104.43 4.15842C104.648 4.1826 104.867 4.1826 105.061 4.15842C105.571 4.11007 106.057 3.84416 106.203 3.33649C106.276 3.11892 106.276 2.87717 106.227 2.63542C106.179 2.3695 106.033 2.12776 105.814 1.95853C105.547 1.81349 105.231 1.71679 104.94 1.74096C104.6 1.74096 104.26 1.74096 103.92 1.74096V4.0859C104.065 4.11008 104.235 4.13425 104.43 4.15842Z" fill="#48337E"/>
<path d="M49.1954 5.70525C48.2481 5.58438 47.4223 5.00419 46.9851 4.15807C46.815 3.81963 46.7179 3.45701 46.6936 3.09439C46.645 2.56255 46.7665 2.00653 47.0336 1.52304C47.4223 0.870324 48.0295 0.362655 48.7582 0.169258C49.5112 -0.0483133 50.337 0.0242128 51.0414 0.386832C51.7215 0.749452 52.2316 1.35382 52.4502 2.07906C52.6688 2.82847 52.5717 3.60206 52.183 4.27895C51.7701 4.95584 51.1143 5.43933 50.337 5.63273C49.9727 5.72943 49.5841 5.7536 49.1954 5.70525Z" fill="#48337E"/>
<path d="M126.946 7.59092V4.56909C126.995 4.20647 126.849 3.84385 126.582 3.57793C126.29 3.38453 125.926 3.33618 125.586 3.43288C125.052 3.57793 124.857 4.13394 124.857 4.64161C124.857 5.63277 124.857 6.59976 124.857 7.59092H123.424C123.424 6.59976 123.424 5.58442 123.424 4.59326C123.448 4.20647 123.303 3.81968 123.011 3.57793C122.695 3.36036 122.137 3.38453 121.797 3.43288C121.651 3.45705 121.505 3.50541 121.384 3.57793V7.59092H119.951V2.68347C120.631 2.3692 121.384 2.22415 122.137 2.19998C122.598 2.1758 123.06 2.22415 123.497 2.3692C123.861 2.49007 124.153 2.70764 124.396 2.99774C124.736 2.58677 125.222 2.29667 125.732 2.22415C126.339 2.12745 126.946 2.22415 127.48 2.49007C127.942 2.75599 128.282 3.21531 128.355 3.74715C128.379 3.86802 128.379 4.01307 128.379 4.13395C128.379 5.27015 128.379 6.40636 128.379 7.54257L126.946 7.59092Z" fill="#48337E"/>
<path d="M1.56348 12.4017C1.58777 12.4017 1.58777 12.4017 1.61206 12.4017C1.61206 12.4017 1.61206 12.4017 1.63635 12.4017C1.68493 12.3533 1.7335 12.3292 1.80637 12.3292L1.83066 12.305H1.85495C1.90353 12.2808 1.9764 12.2325 2.04927 12.2083L2.07356 12.1841C2.09785 12.1841 2.09785 12.1841 2.12214 12.1841C2.6808 11.9182 3.23946 11.6523 3.82241 11.3863C3.82241 11.3863 3.82241 11.3864 3.8467 11.3622H3.87099C3.91957 11.338 3.99244 11.2896 4.0653 11.2655C4.0653 11.2655 4.0653 11.2655 4.08959 11.2413H4.13817C4.3082 11.1446 4.45394 11.0963 4.62396 10.9996C4.64825 10.9996 4.64826 10.9996 4.67254 10.9996L4.69683 10.9754H4.72112C4.7697 10.9512 4.84257 10.9029 4.91544 10.8787C4.91544 10.8787 4.91544 10.8787 4.93973 10.8545H4.98831C5.03689 10.8303 5.06118 10.8062 5.10976 10.8062C5.10976 10.782 5.10976 10.782 5.10976 10.7578L7.27153 12.4017C7.563 12.6193 7.8059 12.8852 8.02451 13.1994C8.31598 13.6588 8.48601 14.1906 8.5103 14.7466C8.5103 15.1092 8.46172 15.4477 8.36456 15.7861C7.97593 17.0674 7.5873 18.3486 7.19866 19.6299C7.00435 20.2584 6.81003 20.887 6.64 21.4913C6.49426 21.9023 6.59142 22.3375 6.85861 22.6517C7.05292 22.8693 7.32011 23.0143 7.61158 23.0385C7.8059 23.0627 8.00022 23.0385 8.19453 22.966H8.21882C8.12167 23.0385 8.00022 23.0869 7.87877 23.1352C7.19866 23.4253 6.44568 23.4737 5.74129 23.2561C5.20692 23.0869 4.74541 22.7726 4.38107 22.3616C4.01672 21.9748 3.77383 21.4913 3.67667 20.9837C3.65238 20.8628 3.62809 20.7178 3.62809 20.5969C3.6038 20.2826 3.62809 19.9683 3.70096 19.6783C3.72525 19.5574 3.74954 19.4607 3.79812 19.3398C4.25962 17.8652 4.69683 16.4147 5.13405 14.94L5.06118 14.8917L1.56348 12.4017Z" fill="#D62A23"/>
<path d="M147.762 7.68795C147.301 7.6396 146.815 7.51873 146.378 7.32533C146.183 7.2528 146.013 7.15611 145.868 7.03523L146.426 6.06825C146.936 6.38252 147.519 6.57592 148.127 6.62427C148.491 6.64844 148.952 6.64844 149.268 6.45504C149.414 6.33417 149.463 6.14077 149.414 5.97155C149.341 5.75398 149.074 5.68146 148.88 5.65728C148.248 5.53641 147.568 5.53641 146.961 5.31883C146.451 5.14961 146.086 4.73864 146.013 4.23097C145.843 3.38486 146.402 2.56293 147.252 2.3937C148.175 2.17613 149.147 2.20031 150.07 2.51458C150.361 2.5871 150.604 2.80467 150.701 3.09477C150.726 3.23982 150.701 3.38486 150.628 3.52991C150.531 3.67496 150.41 3.79583 150.264 3.89253C150.094 3.74748 149.9 3.62661 149.705 3.52991C149.268 3.36069 148.807 3.28816 148.345 3.31234C148.102 3.31234 147.884 3.36069 147.665 3.45739C147.495 3.55409 147.398 3.77166 147.471 3.96506C147.544 4.18263 147.859 4.25515 148.054 4.27932C148.54 4.35185 149.05 4.4002 149.535 4.4969C149.973 4.56942 150.386 4.76282 150.677 5.10126C150.968 5.48806 151.041 5.99572 150.896 6.47922C150.701 7.03523 150.24 7.47038 149.681 7.61542C149.025 7.76047 148.394 7.78465 147.762 7.68795Z" fill="#48337E"/>
<path d="M170.158 7.59048C170.158 6.59932 170.158 5.60816 170.158 4.617C170.182 4.30273 170.061 3.96429 169.866 3.72254C169.55 3.35992 168.895 3.35992 168.457 3.43244C168.287 3.45662 168.117 3.50497 167.972 3.57749V7.59048H166.539V2.68303C167.364 2.34459 168.263 2.17536 169.162 2.19954C169.842 2.19954 170.498 2.41711 171.008 2.87643C171.324 3.1907 171.518 3.60167 171.567 4.06098C171.591 4.15768 171.591 4.27856 171.591 4.37526C171.591 5.43894 171.591 6.50262 171.591 7.56631V7.59048H170.158Z" fill="#48337E"/>
<path d="M131.901 7.76002C131.197 7.73585 130.517 7.46993 130.007 6.96226C129.764 6.72052 129.594 6.43042 129.497 6.11615C129.327 5.56013 129.278 4.97994 129.375 4.39975C129.497 3.67451 129.91 3.0218 130.517 2.61083C131.148 2.24821 131.877 2.10316 132.581 2.19986C133.189 2.24821 133.747 2.56248 134.136 3.04597C134.452 3.48112 134.573 4.03713 134.476 4.56898C134.427 4.78655 134.33 5.00412 134.185 5.17334C133.893 5.43926 133.504 5.58431 133.092 5.58431C132.339 5.60848 131.561 5.58431 130.808 5.58431C130.93 6.04363 131.294 6.40625 131.756 6.50295C132.096 6.57547 132.46 6.59964 132.8 6.5513C133.14 6.52712 133.48 6.45459 133.796 6.33372L134.185 7.34906C133.772 7.51828 133.334 7.63915 132.897 7.6875C132.606 7.76003 132.241 7.76002 131.901 7.76002ZM130.784 4.6415C131.44 4.6415 132.071 4.6415 132.727 4.6415C132.824 4.6415 132.921 4.61732 132.994 4.56898C133.164 4.47228 133.189 4.23053 133.189 4.06131C133.164 3.65034 132.873 3.28772 132.46 3.21519C132.096 3.1185 131.731 3.19102 131.416 3.40859C131.027 3.69869 130.784 4.158 130.784 4.6415Z" fill="#48337E"/>
<path d="M143.561 7.73548C143.221 7.73548 142.88 7.6146 142.589 7.4212C142.225 7.13111 141.982 6.69596 141.957 6.21247C141.86 5.41471 141.933 4.35103 141.933 3.52909C141.715 3.55326 141.472 3.52909 141.253 3.48074C140.986 3.38404 140.937 3.04559 140.986 2.77967C141.01 2.63463 141.059 2.48958 141.107 2.34453H141.933V1.4259C141.933 1.0391 142.2 0.845703 142.565 0.845703C142.832 0.845703 143.099 0.869878 143.366 0.966576V2.36871H144.459C144.678 2.34453 144.872 2.44123 144.994 2.61045C145.067 2.77967 145.091 2.9489 145.067 3.14229C145.042 3.28734 144.994 3.40821 144.945 3.55326H143.366C143.366 4.32685 143.366 5.07626 143.366 5.84985C143.342 6.04325 143.415 6.23665 143.561 6.40587C143.658 6.47839 143.755 6.52674 143.852 6.55092C144.216 6.62344 144.605 6.52674 144.921 6.30917L145.455 7.15528C145.091 7.46955 144.605 7.66295 144.119 7.7113C143.925 7.73548 143.731 7.73548 143.561 7.73548Z" fill="#48337E"/>
<path d="M114.583 9.6219C114.195 9.59773 113.806 9.50102 113.466 9.3318L113.879 8.31647C114.243 8.50987 114.656 8.50986 115.02 8.36482C115.166 8.26812 115.312 8.14725 115.385 7.97803C115.555 7.71211 115.725 7.42201 115.846 7.13191C115.409 6.40667 114.972 5.65726 114.559 4.93202C114.292 4.47271 114.024 4.01338 113.806 3.55407C113.636 3.28815 113.612 2.9497 113.757 2.68378C113.854 2.51456 114.049 2.41786 114.243 2.39369C114.389 2.36951 114.559 2.36951 114.705 2.39369C114.802 2.41786 114.899 2.44203 114.996 2.49038C115.02 2.49038 115.02 2.49039 115.02 2.51456C115.506 3.57824 116.016 4.64193 116.575 5.65726C116.964 4.78698 117.328 3.89251 117.692 3.02223C117.765 2.80465 117.911 2.61126 118.081 2.46621C118.372 2.32116 118.712 2.32116 119.028 2.46621C119.125 2.51456 119.222 2.58708 119.295 2.65961C119.247 2.82883 119.174 3.02222 119.101 3.19145C118.737 4.13426 118.324 5.05289 117.911 5.97153C117.619 6.64842 117.279 7.30114 116.915 7.92968C116.696 8.38899 116.381 8.79996 115.992 9.16258C115.676 9.42851 115.312 9.57355 114.923 9.6219C114.826 9.6219 114.705 9.6219 114.583 9.6219Z" fill="#48337E"/>
<path d="M52.2314 25.2383H46.9849C46.9849 20.0166 46.9849 14.7948 46.9849 9.59729C46.9849 9.3072 47.0091 9.0171 47.0577 8.70283C47.1306 8.26769 47.3735 7.90507 47.7378 7.66332C48.0779 7.44575 48.4422 7.3007 48.8552 7.22818C49.6324 7.10731 50.434 7.13148 51.2113 7.32488C51.4541 7.37323 51.697 7.44575 51.9399 7.51827C52.0614 7.54245 52.1585 7.5908 52.2557 7.63915V25.2383H52.2314Z" fill="#48337E"/>
<path d="M163.624 14.2146H162.336V12.9092H163.672V14.2146H163.624Z" fill="#48337E"/>
<path d="M144.824 25.5526L142.881 23.8603L142.468 24.1021L141.763 23.3768L142.929 22.6758L145.698 24.9965L144.824 25.5526Z" fill="#48337E"/>
<path d="M176.473 7.59132C176.133 7.132 175.768 6.72103 175.38 6.31006C175.04 5.94744 174.675 5.609 174.287 5.29473V7.59132H172.854C172.854 5.27055 172.854 2.97396 172.854 0.653194C172.854 0.218051 173.194 0.0488281 173.582 0.0488281C173.825 0.0488281 174.068 0.0971774 174.287 0.169701C174.287 1.52348 174.287 2.90144 174.287 4.25522V4.30357C174.918 3.7959 175.501 3.23988 176.133 2.73221C176.4 2.46629 176.788 2.32125 177.177 2.36959C177.493 2.39377 177.784 2.56299 177.954 2.82891L177.979 2.85309C177.833 2.99814 177.687 3.11901 177.541 3.23988C176.958 3.74755 176.351 4.23104 175.72 4.71453C176.205 5.10133 176.643 5.53647 177.056 6.01997C177.493 6.50346 177.906 7.01113 178.27 7.56714L176.473 7.59132Z" fill="#48337E"/>
<path d="M29.3751 25.2386H29.3022C29.3022 18.9532 29.3022 12.6436 29.3022 6.33404C29.3022 5.72968 29.4237 5.14949 29.6423 4.59347C30.0066 3.60231 30.711 2.73203 31.6098 2.15184C32.5813 1.54747 33.6744 1.18485 34.7917 1.08815C35.2289 1.0398 35.6661 1.01562 36.1033 1.01562C38.2408 1.01562 40.4026 1.01562 42.5401 1.01562C42.953 1.01562 43.3659 1.08815 43.7546 1.20902C44.2646 1.37825 44.6533 1.76504 44.8233 2.27271C45.0419 2.9496 45.0662 3.69901 44.8962 4.40007C44.799 4.81104 44.6533 5.19784 44.4589 5.56046C44.4104 5.63298 44.3618 5.72968 44.3132 5.8022H37.1721C36.6863 5.77803 36.2005 5.87473 35.7633 6.0923C35.3504 6.2857 35.0346 6.62414 34.8646 7.05928C34.7917 7.22851 34.7674 7.4219 34.7431 7.6153C34.7431 8.72733 34.7431 9.86354 34.7431 10.9756H41.4956C41.9571 10.9756 42.4429 11.0481 42.8801 11.2173C43.4145 11.4591 43.8031 11.9426 43.9246 12.4986C44.0703 13.1755 44.046 13.8765 43.876 14.5534C43.8031 14.8193 43.706 15.0853 43.5845 15.327C43.5117 15.4962 43.4388 15.6413 43.3416 15.7863H34.7431V25.2628H29.3751V25.2386Z" fill="#48337E"/>
<path d="M162.7 7.73541C162.118 7.75958 161.559 7.63871 161.049 7.39696C160.782 7.25191 160.563 7.03434 160.442 6.74425C160.32 6.35745 160.296 5.94648 160.393 5.55969C160.466 5.24542 160.636 4.95532 160.927 4.76192C161.535 4.35096 162.579 4.32678 163.308 4.37513C163.526 4.37513 163.745 4.39931 163.939 4.42348C163.988 4.06086 163.842 3.69824 163.575 3.48067C163.162 3.2631 162.676 3.19058 162.19 3.28727C162.02 3.31145 161.85 3.3598 161.705 3.43232C161.51 3.50484 161.34 3.60155 161.17 3.72242C160.976 3.60155 160.83 3.38397 160.806 3.14223C160.782 2.77961 161.049 2.46534 161.413 2.39281C161.583 2.34446 161.729 2.29612 161.899 2.27194C162.579 2.17524 163.283 2.22359 163.939 2.39281C164.376 2.51369 164.765 2.77961 165.008 3.14223C165.251 3.50484 165.372 3.91582 165.348 4.32678C165.372 5.39047 165.348 6.47832 165.348 7.54201C165.105 7.59036 164.862 7.61453 164.595 7.63871C163.939 7.71123 163.308 7.73541 162.7 7.73541ZM162.725 6.7926C163.113 6.81677 163.502 6.76842 163.891 6.6959V5.29377C163.696 5.2696 163.526 5.24542 163.332 5.24542C162.943 5.19707 162.555 5.24542 162.166 5.34212C161.875 5.43882 161.705 5.70474 161.729 5.99483C161.729 6.09153 161.729 6.21241 161.777 6.3091C161.923 6.67172 162.385 6.7926 162.725 6.7926Z" fill="#48337E"/>
<path d="M110.551 7.73556C110.017 7.73556 109.458 7.63886 108.972 7.42129C108.778 7.32459 108.608 7.17954 108.486 7.03449C108.316 6.76857 108.219 6.47848 108.219 6.16421C108.219 6.06751 108.219 5.99499 108.219 5.89829C108.219 5.53567 108.365 5.17305 108.608 4.90712C108.802 4.7379 109.021 4.59285 109.264 4.52033C109.871 4.35111 110.502 4.30276 111.11 4.35111C111.328 4.35111 111.571 4.37528 111.79 4.39946C111.863 4.03684 111.693 3.67422 111.401 3.48082C111.085 3.26325 110.454 3.23908 110.09 3.28743C109.725 3.33577 109.361 3.48082 109.045 3.72257H109.021C108.875 3.62587 108.754 3.48082 108.705 3.3116C108.632 3.1182 108.656 2.90063 108.754 2.73141C109.045 2.29626 109.944 2.22374 110.405 2.22374C111.013 2.19956 111.644 2.32044 112.203 2.56219C112.47 2.68306 112.689 2.87646 112.859 3.1182C113.101 3.45665 113.223 3.89179 113.223 4.30276C113.247 5.39062 113.223 6.4543 113.223 7.54216C112.956 7.59051 112.689 7.63886 112.397 7.66303C111.79 7.71138 111.158 7.73556 110.551 7.73556ZM110.697 6.76857C110.867 6.76857 111.013 6.76857 111.183 6.76857C111.377 6.7444 111.571 6.72022 111.79 6.69605V5.29392C111.595 5.26975 111.425 5.24557 111.231 5.24557C110.843 5.22139 110.041 5.19722 109.774 5.53567C109.652 5.70489 109.604 5.92246 109.628 6.14003C109.628 6.21256 109.652 6.28508 109.701 6.3576C109.725 6.40595 109.774 6.47848 109.822 6.50265C110.065 6.69605 110.381 6.79275 110.697 6.76857Z" fill="#48337E"/>
<path d="M139.091 7.59048C139.091 6.59932 139.091 5.60816 139.091 4.617C139.116 4.20603 138.946 3.81924 138.654 3.57749C138.314 3.33574 137.755 3.35992 137.367 3.43244C137.197 3.45662 137.051 3.50497 136.905 3.57749V7.59048H135.472V2.68303C136.298 2.34459 137.197 2.17536 138.095 2.19954C138.776 2.19954 139.431 2.44129 139.941 2.87643C140.257 3.1907 140.452 3.60166 140.5 4.03681C140.524 4.13351 140.524 4.25438 140.524 4.35108C140.524 5.43894 140.524 6.50262 140.524 7.59048H139.091Z" fill="#48337E"/>
<path d="M9.26326 2.22363C9.28755 2.27198 9.28755 2.29616 9.31184 2.34451L9.57902 2.61043V2.6346C9.84621 2.90053 10.0648 3.16644 10.3563 3.43236V3.45654L10.6235 3.72246V3.74664L10.8907 4.01256V4.03673C11.1578 4.30265 11.3765 4.59275 11.6679 4.83449V4.85867L11.838 5.02789C11.838 5.00372 11.838 4.97954 11.8622 4.95537C11.8865 4.93119 11.8865 4.95537 11.8865 4.95537C11.5465 5.92235 11.2064 6.86517 10.8907 7.83215C10.8421 7.95302 10.7935 8.0739 10.7449 8.19477C10.5749 8.53322 10.332 8.84748 10.0648 9.1134C9.67618 9.47602 9.21468 9.71777 8.7046 9.83864C8.55886 9.86282 8.43741 9.887 8.29167 9.91117C7.02862 9.95952 5.74127 9.95952 4.45392 9.98369L3.96813 10.0079C3.96813 10.0079 3.94384 10.0079 3.94384 10.032C3.91955 10.0079 3.89526 10.0079 3.87097 10.0079C3.23944 10.032 2.60791 10.032 1.97638 10.032C1.83064 10.032 1.70919 10.0562 1.56346 10.0804C1.34485 10.1529 1.15053 10.2738 1.0048 10.443C0.737611 10.7815 0.664742 11.2166 0.81048 11.6034C0.859059 11.7484 0.956217 11.8693 1.05338 11.966C1.07767 11.9902 1.12624 12.0144 1.17482 12.0385V12.0627C1.07767 11.9902 1.0048 11.9177 0.931928 11.8451C0.22753 11.1683 -0.112525 10.2013 0.0332128 9.23428C0.130371 8.65409 0.373267 8.09807 0.7619 7.66293C1.19911 7.15526 1.78206 6.81682 2.41359 6.67177C2.53504 6.64759 2.65649 6.62342 2.80223 6.62342C4.45392 6.57507 6.10561 6.55089 7.78159 6.52672C7.80588 6.45419 7.83017 6.40584 7.85446 6.33332C8.29167 4.97954 8.77747 3.60159 9.26326 2.22363Z" fill="#D62A23"/>
<path d="M139.577 14.1667H138.265V12.958H139.601L139.577 14.1667Z" fill="#48337E"/>
<path d="M9.26318 2.22443C9.28747 2.17608 9.28747 2.12773 9.31176 2.07939C9.31176 2.05521 9.31176 2.05521 9.33605 2.03104L9.36034 2.05521C9.38463 1.95851 9.43321 1.86181 9.50608 1.78929C9.57895 1.69259 9.65182 1.62007 9.74898 1.54754C10.2833 1.16075 11.012 1.28162 11.4007 1.78929C11.4735 1.91016 11.5464 2.03103 11.595 2.17608C11.8136 2.78045 12.0079 3.38481 12.2265 3.98918V4.01336C12.1294 4.32763 12.0079 4.61772 11.9107 4.93199C11.8865 4.93199 11.8865 4.93199 11.8865 4.93199C11.8865 4.93199 11.8865 4.98034 11.8622 5.00451L11.6921 4.83529V4.81112C11.425 4.5452 11.1821 4.2551 10.9149 4.01336V3.98918L10.6477 3.72326V3.69909L10.3805 3.43316V3.40899C10.1133 3.14307 9.87042 2.85297 9.60324 2.61123L9.33605 2.3453C9.31176 2.29696 9.28747 2.27278 9.26318 2.22443Z" fill="#AD1F1E"/>
<path d="M85.1199 25.5531C83.8811 25.5289 82.6423 25.2871 81.4764 24.8278C80.3348 24.3443 79.3147 23.6674 78.4402 22.8213C77.3472 21.7335 76.5699 20.4039 76.157 18.9292C75.817 17.6963 75.7198 16.415 75.817 15.158C75.9141 13.9251 76.2785 12.6922 76.8371 11.5801C77.3958 10.4923 78.1731 9.54945 79.1446 8.77586C80.4077 7.7847 81.8894 7.10781 83.4682 6.84189C84.7798 6.62432 86.1157 6.62432 87.4031 6.84189C88.6662 7.05946 89.8806 7.54296 90.9494 8.21985C92.2367 9.04178 93.3055 10.178 94.0099 11.5076C94.5928 12.6196 94.9572 13.8525 95.0543 15.1096C95.1758 16.3909 95.0543 17.6963 94.69 18.9292C94.3499 20.1621 93.7427 21.2983 92.9168 22.2653C92.0667 23.2565 91.0222 24.0542 89.8321 24.6102C88.6419 25.1663 87.3545 25.4805 86.0429 25.5289C85.7514 25.5531 85.4356 25.5772 85.1199 25.5531ZM85.2899 21.7093C85.63 21.7093 85.97 21.6851 86.2858 21.6368C86.9416 21.5401 87.5488 21.2741 88.0832 20.8874C88.7633 20.3797 89.2977 19.7028 89.6377 18.9292C89.9049 18.2523 90.075 17.5513 90.1235 16.826C90.2207 15.8349 90.1235 14.8195 89.8563 13.8525C89.6377 13.0548 89.2248 12.3537 88.6419 11.7735C88.0832 11.2175 87.3545 10.8065 86.5773 10.6373C85.9457 10.4923 85.2899 10.4681 84.6341 10.589C84.1483 10.6615 83.7111 10.8065 83.2739 11.0483C82.6666 11.3867 82.1565 11.846 81.7436 12.4021C81.2335 13.1515 80.9178 13.9976 80.8206 14.8679C80.6992 15.6656 80.6992 16.4634 80.7963 17.2612C80.8935 18.1314 81.185 18.9776 81.6465 19.727C82.0108 20.2588 82.4723 20.7181 83.0067 21.0566C83.7111 21.4675 84.4883 21.7093 85.2899 21.7093Z" fill="#48337E"/>
<path d="M1.56346 12.4011C1.44201 12.3044 1.32057 12.2077 1.19912 12.1352C1.17483 12.111 1.17483 12.111 1.15054 12.0868C1.15054 12.0868 1.15054 12.0627 1.15054 12.0385C1.10196 12.0143 1.07767 11.9901 1.02909 11.966C0.931934 11.8693 0.834776 11.7484 0.786197 11.6033C0.640459 11.2165 0.713328 10.7572 0.980513 10.443C1.12625 10.2737 1.32057 10.1287 1.53917 10.0803C1.68491 10.032 1.80636 10.032 1.9521 10.032C2.58362 10.032 3.21516 10.0078 3.84668 10.0078C3.87097 10.0078 3.89526 10.0078 3.91955 10.032C4.2839 10.2979 4.64824 10.588 4.98829 10.8539C4.98829 10.8781 4.98829 10.8781 4.98829 10.9023C4.93971 10.9023 4.89114 10.9264 4.86685 10.9506H4.84256C4.84256 10.9506 4.84256 10.9748 4.81827 10.9748C4.7454 10.999 4.69682 11.0231 4.62395 11.0715H4.59966L4.57537 11.0957C4.55108 11.0957 4.55108 11.0957 4.52679 11.0957C4.35677 11.1924 4.21103 11.2407 4.041 11.3374H3.99242C3.99242 11.3374 3.99242 11.3374 3.96813 11.3616C3.89526 11.3858 3.84668 11.4341 3.77381 11.4583H3.74953C3.74953 11.4583 3.74953 11.4825 3.72524 11.4825C3.16658 11.7242 2.58363 12.0143 2.02497 12.2802C2.02497 12.2802 2.00068 12.2802 1.97639 12.2802L1.9521 12.3044C1.87923 12.3286 1.83065 12.3528 1.75778 12.4011H1.73349L1.7092 12.4253C1.63633 12.4495 1.58775 12.4736 1.53917 12.4978H1.51488C1.58775 12.4011 1.58775 12.4011 1.56346 12.4011Z" fill="#AD1F1E"/>
<path d="M16.3072 23.0383C16.4529 23.0867 16.5744 23.1109 16.6958 23.135C16.8658 23.135 17.0601 23.1109 17.2302 23.0625C17.6917 22.8933 17.9832 22.434 17.9832 21.9505C17.9832 21.8538 17.9589 21.7329 17.9346 21.6362C17.7403 21.0077 17.5459 20.3791 17.3516 19.7264V19.6781C16.963 18.3726 16.5744 17.0914 16.1614 15.786C16.1371 15.6893 16.1129 15.5926 16.0886 15.4959C15.9914 14.9882 16.0157 14.4805 16.1857 13.997C16.38 13.3927 16.7687 12.8608 17.2545 12.4982C18.3475 11.6763 19.4405 10.8543 20.5093 10.0324C20.4121 10.0324 20.315 10.0324 20.2178 10.0324C20.315 10.0324 20.3878 10.0324 20.485 10.0324C20.485 10.0324 20.485 10.0324 20.5093 10.0324C20.5336 10.0324 20.5336 10.0082 20.5336 10.0082C21.0436 9.6456 21.5537 9.23462 22.0638 8.84783C22.5982 8.48521 22.7439 7.7358 22.3796 7.20396C22.2824 7.08308 22.1853 6.96221 22.0638 6.88969C21.9424 6.81716 21.7966 6.74464 21.6509 6.72047L21.6266 6.69629C21.7966 6.72046 21.9424 6.74464 22.0881 6.76881C22.4767 6.86551 22.8411 7.01056 23.1568 7.25231C23.6426 7.61493 24.0313 8.09842 24.2256 8.67861C24.5899 9.66977 24.4199 10.7576 23.7641 11.5796C23.594 11.7971 23.3997 11.9905 23.1811 12.1598C21.9181 13.1267 20.655 14.0696 19.3919 15.0124C19.8777 16.5595 20.3635 18.1067 20.8007 19.6539C20.8493 19.8473 20.8979 20.0407 20.8979 20.2583C20.9222 20.6934 20.8493 21.1044 20.7036 21.5153C20.4607 22.1439 19.9992 22.6757 19.4162 23.0383C19.2705 23.135 19.1005 23.2076 18.9304 23.2801C18.7604 23.3526 18.5904 23.401 18.4204 23.4251C18.2746 23.4493 18.1046 23.4735 17.9589 23.4735C17.8131 23.4735 17.6674 23.4735 17.5217 23.4493C17.2545 23.4251 16.963 23.3526 16.7201 23.2559C16.5986 23.1834 16.4529 23.1109 16.3072 23.0383Z" fill="#D62A23"/>
<path d="M168.069 22.4341H166.611V21.2253C166.198 21.5154 165.688 21.6121 165.178 21.5154C164.717 21.4429 164.279 21.2737 163.915 20.9836C163.308 20.5243 163.041 19.7749 163.211 19.0254C163.429 18.3727 163.915 17.8651 164.547 17.6233C165.032 17.4299 165.542 17.3816 166.053 17.4783C166.223 17.5266 166.368 17.575 166.514 17.6233L166.15 18.7112C165.858 18.6145 165.542 18.5903 165.227 18.6628C164.984 18.7595 164.765 18.9287 164.668 19.1947C164.595 19.3639 164.595 19.5573 164.668 19.7265C164.765 19.9683 164.935 20.1375 165.154 20.2342C165.494 20.3792 165.907 20.3309 166.198 20.1133C166.32 20.0408 166.441 19.9441 166.538 19.8232V16.8739H162.02V22.4341H160.539V21.2012C160.053 21.4671 159.494 21.5638 158.936 21.4671C158.426 21.3946 157.94 21.177 157.551 20.8385C157.284 20.5968 157.09 20.3067 156.968 19.9683C156.725 19.1947 156.968 18.3727 157.575 17.8409C158.061 17.4299 158.668 17.2123 159.3 17.2365C159.591 17.2365 159.907 17.2607 160.199 17.3574C160.272 17.3816 160.344 17.4057 160.417 17.4541L160.077 18.4936C159.81 18.3727 159.519 18.3244 159.227 18.3727C159.179 18.3727 159.106 18.3969 159.057 18.3969L160.563 19.7265V16.8739H156.482V15.8102H160.417L157.6 14.4806L158.328 13.3444L161 15.1817C161 15.1817 161.025 15.2059 161.025 15.1817L159.713 12.9334L160.879 12.4983H160.927C160.927 12.4983 160.927 12.5225 160.952 12.5225C161.437 13.5862 161.923 14.674 162.385 15.7377L162.409 15.786H172.003V16.8255C172.003 16.8255 172.003 16.8255 171.979 16.8255C170.692 16.8739 169.356 16.8255 168.069 16.8255V17.6958C168.311 17.5024 168.627 17.3816 168.943 17.3816C169.453 17.3574 169.963 17.4541 170.4 17.6958C170.789 17.9134 171.105 18.2277 171.323 18.6145C171.591 19.1221 171.615 19.7023 171.421 20.2584C171.178 20.9111 170.716 21.4671 170.133 21.8297C170.012 21.9022 169.89 21.9989 169.745 22.0473L168.943 21.0078C169.332 20.8385 169.672 20.5243 169.866 20.1617C170.036 19.8716 170.085 19.4848 169.939 19.1705C169.842 18.9529 169.647 18.7837 169.453 18.687C169.137 18.5661 168.773 18.5903 168.481 18.7837C168.311 18.8804 168.166 19.0013 168.044 19.1463L168.069 22.4341ZM159.203 20.355C159.446 20.4034 159.713 20.355 159.907 20.2342C159.47 19.8232 159.009 19.4122 158.571 19.0254L158.547 19.0013L158.523 19.0254C158.474 19.098 158.45 19.1705 158.426 19.243C158.377 19.3881 158.401 19.5331 158.45 19.6782C158.547 20.0166 158.839 20.2825 159.203 20.355Z" fill="#48337E"/>
<path d="M20.2179 9.96036H19.975H19.7807V9.93619C19.6593 9.93619 19.5135 9.93619 19.3921 9.93619C19.7807 9.28347 20.2179 8.55823 20.5823 7.88134C20.6066 7.83299 20.6551 7.78464 20.6794 7.76047C20.7037 7.71212 20.7037 7.68795 20.728 7.66377C20.7766 7.59125 20.8252 7.47038 20.8738 7.39785C20.898 7.37368 20.9466 7.30115 20.9709 7.27698C20.9952 7.2528 20.9952 7.20445 21.0195 7.18028C21.0438 7.10775 21.1409 6.96271 21.1652 6.91436C21.1895 6.86601 21.2381 6.76931 21.2867 6.69679L21.311 6.67261C21.311 6.67261 21.311 6.64844 21.3353 6.64844C21.3838 6.64844 21.4081 6.64844 21.4567 6.67261H21.481C21.5296 6.67261 21.5782 6.67261 21.6267 6.67261L21.651 6.69679C21.7968 6.72096 21.9425 6.76931 22.0639 6.86601C22.5983 7.22863 22.7683 7.95387 22.404 8.48571C22.3311 8.60658 22.2097 8.72746 22.0882 8.79998C21.5782 9.18678 21.0681 9.57357 20.558 9.96036C20.558 9.96036 20.5337 9.98454 20.5094 9.98454C20.5094 9.98454 20.5094 9.98454 20.4851 9.98454C20.4123 9.96036 20.3151 9.96036 20.2179 9.96036Z" fill="#AD1F1E"/>
<path d="M123.06 22.4336H121.627V16.8734H120.145V22.4336H120.121C119.635 22.4578 119.149 22.4336 118.664 22.4336V19.1942H117.036C116.915 19.1942 116.818 19.2425 116.769 19.3392C116.745 19.3876 116.72 19.4601 116.72 19.5085C116.72 19.7502 116.72 19.9678 116.72 20.2095C116.72 20.4513 116.575 20.6447 116.332 20.7172C116.137 20.7414 115.919 20.693 115.773 20.5721C115.603 20.4513 115.457 20.3304 115.312 20.1853C114.996 19.8711 114.729 19.4843 114.51 19.0975C114.364 18.8799 114.34 18.614 114.413 18.3723C114.486 18.2272 114.631 18.1305 114.802 18.1063C114.85 18.1063 114.899 18.1063 114.923 18.1063C116.162 18.1063 117.4 18.1063 118.639 18.1063V16.8976H110.527V18.0096C110.697 17.8162 110.915 17.6954 111.158 17.647C111.668 17.5261 112.203 17.5745 112.688 17.7437C113.053 17.8888 113.344 18.1063 113.587 18.3964C114.073 19.025 113.951 19.8227 113.66 20.4996C113.538 20.7897 113.417 21.0798 113.271 21.3457C113.126 21.6116 112.956 21.8776 112.785 22.1435L111.62 21.2732C111.935 20.9348 112.178 20.5238 112.324 20.0886C112.421 19.8227 112.445 19.5326 112.421 19.2425C112.348 18.9041 112.033 18.6865 111.692 18.7349C111.45 18.759 111.207 18.8557 111.012 18.9766C110.818 19.0975 110.672 19.2667 110.527 19.4359V22.4336H109.045V20.4754C108.778 20.7172 108.438 20.8381 108.073 20.8381C107.563 20.8864 107.053 20.7414 106.64 20.4513C106.3 20.2095 106.057 19.8952 105.936 19.5085C105.863 19.2909 105.839 19.0491 105.839 18.8316V16.8734H104.697V22.4336H103.24V16.8734H102.462V15.8097H103.191C103.094 15.5196 103.045 15.2054 103.07 14.8911C103.143 14.1659 103.677 13.634 104.308 13.2956C105.013 12.933 105.814 12.7879 106.592 12.9088C107.175 13.0055 107.709 13.2714 108.17 13.634C108.875 14.19 109.434 14.9153 109.846 15.713H108.535C108.316 15.3262 108.049 14.9878 107.733 14.6977C107.539 14.5285 107.32 14.3593 107.102 14.2384C106.689 14.0208 106.203 13.9241 105.741 14.0208C105.353 14.0933 105.013 14.2626 104.746 14.5527C104.478 14.8911 104.576 15.4229 104.721 15.7856H121.87L119.052 13.2472C119.052 13.2472 119.076 13.2472 119.076 13.223C119.441 12.9813 119.781 12.7154 120.145 12.4736L123.206 15.7856H123.959V16.8492H123.084L123.06 22.4336ZM107.903 19.7019C108.073 19.726 108.219 19.7019 108.365 19.6293C108.681 19.4601 108.923 19.1942 109.093 18.8799V16.8734H107.369C107.369 17.5261 107.369 18.203 107.369 18.8557C107.369 18.9524 107.393 19.0491 107.393 19.1458C107.49 19.3876 107.66 19.581 107.903 19.7019Z" fill="#48337E"/>
<path d="M8.12151 23.0383C7.9029 23.1108 7.70858 23.135 7.51427 23.1108C6.88274 23.0383 6.42124 22.4581 6.46982 21.8296C6.46982 21.7329 6.4941 21.6603 6.54268 21.5637C6.737 20.9593 6.90703 20.3307 7.10135 19.7022H7.12563C8.24296 18.9286 9.36028 18.155 10.4776 17.3814C11.2063 16.8496 12.1536 16.6804 13.028 16.9221C13.3923 17.0188 13.7324 17.188 14.0239 17.4056C15.1169 18.155 16.2342 18.9286 17.3273 19.678H17.3516C17.5459 20.3307 17.7402 20.9593 17.9345 21.5878C17.9588 21.6845 17.9831 21.8054 17.9831 21.9021C17.9831 22.3856 17.6916 22.8207 17.2301 23.0141C17.0601 23.0625 16.89 23.0867 16.6957 23.0867C16.5743 23.0867 16.4528 23.0383 16.3314 22.99H16.3071C16.3071 22.99 16.2099 22.9416 16.1857 22.9174C15.4084 22.3856 14.6554 21.8537 13.8781 21.3219C13.8781 22.1922 13.8781 23.0625 13.8781 23.9328C13.8539 24.7789 13.1495 25.4799 12.2993 25.5283C11.9593 25.5525 11.6192 25.4558 11.3277 25.2865C10.8419 24.9964 10.5505 24.4888 10.5262 23.9569C10.5019 23.0867 10.5262 22.1922 10.5262 21.3219C9.74891 21.8537 8.99593 22.3856 8.21867 22.9174L8.12151 23.0383Z" fill="#48337E"/>
<path d="M149.025 22.627C149.025 22.627 149.001 22.627 149.001 22.6028C147.932 21.1765 146.839 19.7744 145.771 18.3481L146.864 17.5745C147.009 17.9371 147.277 18.2756 147.592 18.4931C147.714 18.5898 147.859 18.5898 147.981 18.5415C148.102 18.4448 148.2 18.2756 148.2 18.1305C148.224 17.7195 148.2 17.2602 148.2 16.8492H144.678V18.9041H142.346C142.054 18.8799 141.787 19.0008 141.593 19.1942C141.326 19.4843 141.253 19.8711 141.398 20.2337C141.544 20.6205 141.811 20.9589 142.176 21.1523C142.686 21.3699 143.269 21.3941 143.779 21.1765C144.095 21.0798 144.386 20.8864 144.605 20.6447L145.673 21.4182C145.455 21.6842 145.188 21.8776 144.872 22.0226C144.532 22.1918 144.143 22.3127 143.755 22.3611C143.074 22.4819 142.37 22.4336 141.714 22.2402C140.986 21.9743 140.378 21.4424 140.038 20.7655C139.82 20.3062 139.771 19.7744 139.917 19.2667C140.208 18.3964 141.034 17.7921 141.957 17.7679C142.37 17.7679 142.783 17.7679 143.196 17.7679V16.8492H138.751V22.4094H137.269V19.9194H135.496C135.496 20.137 135.496 20.3546 135.496 20.5721C135.52 20.7655 135.375 20.9589 135.18 21.0315C134.937 21.0315 134.695 20.9348 134.524 20.7655C134.257 20.5721 133.99 20.3304 133.747 20.0886C133.529 19.8952 133.164 19.5085 133.14 19.2184C133.14 19.0733 133.237 18.9524 133.359 18.9041C133.407 18.8799 133.431 18.8799 133.48 18.8799H134.039V16.8492H132.241V22.4094H130.784V20.3787C130.541 20.548 130.274 20.693 129.982 20.7414C129.327 20.8622 128.646 20.7414 128.088 20.3787C127.602 20.0886 127.286 19.6052 127.238 19.0491C127.238 19.0008 127.238 18.9524 127.238 18.9041C127.238 18.203 127.238 17.5261 127.238 16.8251H126.728V15.7856H130.978L128.209 13.2472C128.209 13.2472 128.233 13.2472 128.233 13.223C128.598 12.9813 128.938 12.7154 129.302 12.4736L132.363 15.8097H137.512L134.719 13.2472C134.743 13.2472 134.743 13.223 134.743 13.223C135.107 12.9813 135.447 12.7154 135.812 12.4736L138.872 15.7856H153.835V16.8492H152.985V22.4094H151.503V19.6293H150.361L149.851 18.4931H151.503V16.8734H149.681C149.681 17.3811 149.705 17.8888 149.681 18.3964C149.681 18.8799 149.414 19.3151 149.001 19.581C148.855 19.6535 148.685 19.6777 148.515 19.6535C148.442 19.6535 148.394 19.6293 148.321 19.6293C148.297 19.6293 148.297 19.6293 148.297 19.6293L150.143 21.8776L149.025 22.627ZM129.375 19.6777C129.472 19.7019 129.569 19.7019 129.667 19.6777C130.104 19.6052 130.517 19.3876 130.784 19.0491V16.8492H128.719V18.9283C128.719 19.0975 128.792 19.2667 128.914 19.3876C129.011 19.5326 129.205 19.6293 129.375 19.6777ZM137.294 18.8074L137.318 16.8492H135.545V18.8074H137.294Z" fill="#48337E"/>
</svg>
